<svg width="256" height="256" viewBox="0 0 256 256" fill="none" xmlns="http://www.w3.org/2000/svg">
<path d="M128.051 72.4201C143.124 72.4201 155.401 60.2402 155.571 45.2087C146.924 42.323 137.671 40.7549 128.051 40.7549C118.43 40.7549 109.177 42.3205 100.53 45.2087C100.7 60.2427 112.977 72.4201 128.051 72.4201Z" fill="url(#paint0_linear_83_94)"/>
<path d="M128.051 83.6313C108.32 83.6313 91.9997 68.8015 89.622 49.7051C86.9113 51.0446 84.2808 52.5203 81.7402 54.1248C86.0458 75.7593 105.172 92.1183 128.051 92.1183C150.931 92.1183 170.059 75.7593 174.363 54.1248C171.822 52.5203 169.189 51.0446 166.481 49.7051C164.103 68.8015 147.783 83.6313 128.051 83.6313Z" fill="url(#paint1_linear_83_94)"/>
<path d="M128.051 171.622C147.783 171.622 164.103 186.452 166.481 205.551C169.191 204.211 171.822 202.736 174.363 201.131C170.057 179.497 150.931 163.138 128.051 163.138C105.172 163.138 86.0434 179.497 81.7402 201.131C84.2808 202.736 86.9137 204.211 89.622 205.551C91.9997 186.452 108.32 171.622 128.051 171.622Z" fill="url(#paint2_linear_83_94)"/>
<path d="M176.841 137.396C180.452 135.483 183.938 133.37 187.286 131.063C196.291 137.807 204.112 146.048 210.382 155.411C213.326 146.685 214.921 137.343 214.921 127.623C214.921 117.906 213.323 108.561 210.382 99.8353C204.112 109.198 196.291 117.439 187.286 124.183C180.408 129.334 172.827 133.586 164.739 136.827C153.383 141.373 141.011 143.902 128.05 143.902C115.09 143.902 102.718 141.373 91.3617 136.827C96.7978 134.104 102.572 131.967 108.608 130.496C114.866 131.916 121.367 132.692 128.05 132.692C134.734 132.692 141.235 131.916 147.492 130.496C158.131 128.08 168.05 123.748 176.841 117.85C188.482 110.041 198.155 99.5217 204.96 87.2057C199.731 77.2746 192.634 68.4813 184.137 61.2876C177.031 85.5477 154.579 103.319 128.05 103.319C101.522 103.319 79.0698 85.5477 71.9635 61.2876C63.4666 68.4788 56.3701 77.2722 51.1406 87.2057C57.9455 99.5217 67.619 110.041 79.2594 117.85C75.6492 119.763 72.1629 121.876 68.8152 124.183C59.8101 117.439 51.9891 109.198 45.7191 99.8353C42.775 108.561 41.1802 117.903 41.1802 127.623C41.1802 137.34 42.7774 146.685 45.7191 155.411C51.9891 146.048 59.8101 137.807 68.8152 131.063C75.6929 125.911 83.2708 121.659 91.3617 118.419C102.718 113.873 115.09 111.344 128.05 111.344C141.011 111.344 153.383 113.873 164.739 118.419C159.303 121.142 153.529 123.279 147.492 124.749C141.235 123.33 134.734 122.554 128.05 122.554C121.367 122.554 114.866 123.33 108.608 124.749C97.9696 127.163 88.0505 131.498 79.2594 137.396C67.619 145.205 57.9455 155.724 51.1406 168.04C56.3701 177.971 63.4666 186.765 71.9635 193.958C79.0698 169.698 101.522 151.927 128.05 151.927C154.579 151.927 177.031 169.698 184.137 193.958C192.634 186.767 199.731 177.971 204.96 168.04C198.155 155.727 188.482 145.207 176.841 137.396Z" fill="url(#paint3_linear_83_94)"/>
<path d="M128.051 182.83C112.977 182.83 100.7 195.008 100.53 210.042C109.18 212.927 118.43 214.495 128.051 214.495C137.671 214.495 146.924 212.927 155.571 210.042C155.401 195.01 143.124 182.83 128.051 182.83Z" fill="url(#paint4_linear_83_94)"/>
<defs>
<linearGradient id="paint0_linear_83_94" x1="128.051" y1="72.4201" x2="128.051" y2="40.7549" gradientUnits="userSpaceOnUse">
<stop stop-color="#C12424"/>
<stop offset="1" stop-color="#5D0E0E"/>
</linearGradient>
<linearGradient id="paint1_linear_83_94" x1="128.051" y1="92.1183" x2="128.051" y2="49.7051" gradientUnits="userSpaceOnUse">
<stop stop-color="#C12424"/>
<stop offset="1" stop-color="#5D0E0E"/>
</linearGradient>
<linearGradient id="paint2_linear_83_94" x1="128.051" y1="205.551" x2="128.051" y2="163.138" gradientUnits="userSpaceOnUse">
<stop stop-color="#C12424"/>
<stop offset="1" stop-color="#5D0E0E"/>
</linearGradient>
<linearGradient id="paint3_linear_83_94" x1="128.05" y1="193.958" x2="128.05" y2="61.2876" gradientUnits="userSpaceOnUse">
<stop stop-color="#C12424"/>
<stop offset="1" stop-color="#5D0E0E"/>
</linearGradient>
<linearGradient id="paint4_linear_83_94" x1="128.051" y1="214.495" x2="128.051" y2="182.83" gradientUnits="userSpaceOnUse">
<stop stop-color="#C12424"/>
<stop offset="1" stop-color="#5D0E0E"/>
</linearGradient>
</defs>
</svg>
