<svg width="428" height="428" viewBox="0 0 428 428" fill="none" xmlns="http://www.w3.org/2000/svg">
<g clip-path="url(#clip0_84_101)">
<rect width="427.5" height="427.5" rx="12" fill="#3C0D0D"/>
<g opacity="0.4" clip-path="url(#clip1_84_101)">
<path d="M44.9375 353.25C44.9375 357.444 46.6035 361.466 49.5689 364.431C52.5343 367.397 56.5563 369.062 60.75 369.062C64.9437 369.062 68.9657 367.397 71.9311 364.431C74.8965 361.466 76.5625 357.444 76.5625 353.25C76.5625 349.056 74.8965 345.034 71.9311 342.069C68.9657 339.103 64.9437 337.438 60.75 337.438C56.5563 337.438 52.5343 339.103 49.5689 342.069C46.6035 345.034 44.9375 349.056 44.9375 353.25Z" stroke="#DE0707" stroke-width="31.625" stroke-linecap="round" stroke-linejoin="round"/>
<path d="M60.75 274.188C45.113 274.188 29.827 278.824 16.8253 287.512C3.8235 296.199 -6.31014 308.547 -12.2942 322.994C-18.2782 337.441 -19.8439 353.338 -16.7933 368.674C-13.7427 384.011 -6.21268 398.099 4.84441 409.156C15.9015 420.213 29.9891 427.743 45.3257 430.793C60.6623 433.844 76.5592 432.278 91.0059 426.294C105.453 420.31 117.801 410.177 126.488 397.175C135.176 384.173 139.813 368.887 139.813 353.25" stroke="#DE0707" stroke-width="31.625" stroke-linecap="round" stroke-linejoin="round"/>
<path d="M76.5616 211.808C47.2463 208.519 17.6334 214.421 -8.18073 228.698C-33.9949 242.975 -54.7345 264.921 -67.5307 291.501C-80.3269 318.08 -84.5473 347.979 -79.608 377.062C-74.6687 406.144 -60.8139 432.973 -39.96 453.838C-19.1062 474.702 7.71597 488.57 36.7962 493.524C65.8765 498.478 95.7776 494.273 122.363 481.49C148.949 468.707 170.906 447.979 185.196 422.172C199.485 396.365 205.403 366.755 202.129 337.438" stroke="#DE0707" stroke-width="31.625" stroke-linecap="round" stroke-linejoin="round"/>
<path d="M108.188 258.375V305.812H155.625L203.062 258.375H155.625V210.938L108.188 258.375Z" stroke="#DE0707" stroke-width="31.625" stroke-linecap="round" stroke-linejoin="round"/>
<path d="M108.188 305.812L60.75 353.25" stroke="#DE0707" stroke-width="31.625" stroke-linecap="round" stroke-linejoin="round"/>
</g>
</g>
<defs>
<clipPath id="clip0_84_101">
<rect width="427.5" height="427.5" rx="12" fill="white"/>
</clipPath>
<clipPath id="clip1_84_101">
<rect width="379.5" height="379.5" fill="white" transform="translate(-129 163.5)"/>
</clipPath>
</defs>
</svg>
