<svg width="428" height="428" viewBox="0 0 428 428" fill="none" xmlns="http://www.w3.org/2000/svg">
<g clip-path="url(#clip0_84_111)">
<rect width="427.5" height="427.5" rx="12" fill="#DE0707" fill-opacity="0.4"/>
<g clip-path="url(#clip1_84_111)">
<path d="M-57.5625 322.438H227.062" stroke="#3C0D0D" stroke-width="31.625" stroke-linecap="round" stroke-linejoin="round"/>
<path d="M-25.9375 322.438V259.188C-25.9375 246.606 -20.9396 234.54 -12.0434 225.644C-3.14712 216.748 8.91879 211.75 21.5 211.75H148C160.581 211.75 172.647 216.748 181.543 225.644C190.44 234.54 195.437 246.606 195.438 259.188V322.438" stroke="#3C0D0D" stroke-width="31.625" stroke-linecap="round" stroke-linejoin="round"/>
<path d="M-41.75 417.312C-41.75 423.542 -40.523 429.711 -38.139 435.466C-35.7551 441.221 -32.2609 446.451 -27.8559 450.856C-23.4509 455.261 -18.2214 458.755 -12.466 461.139C-6.71066 463.523 -0.542082 464.75 5.6875 464.75C11.9171 464.75 18.0857 463.523 23.841 461.139C29.5964 458.755 34.8259 455.261 39.2309 450.856C43.6359 446.451 47.1301 441.221 49.514 435.466C51.898 429.711 53.125 423.542 53.125 417.312C53.125 411.083 51.898 404.914 49.514 399.159C47.1301 393.404 43.6359 388.174 39.2309 383.769C34.8259 379.364 29.5964 375.87 23.841 373.486C18.0857 371.102 11.9171 369.875 5.6875 369.875C-0.542082 369.875 -6.71066 371.102 -12.466 373.486C-18.2214 375.87 -23.4509 379.364 -27.8559 383.769C-32.2609 388.174 -35.7551 393.404 -38.139 399.159C-40.523 404.914 -41.75 411.083 -41.75 417.312Z" stroke="#3C0D0D" stroke-width="31.625" stroke-linecap="round" stroke-linejoin="round"/>
<path d="M116.375 417.312C116.375 429.894 121.373 441.96 130.269 450.856C139.165 459.752 151.231 464.75 163.812 464.75C176.394 464.75 188.46 459.752 197.356 450.856C206.252 441.96 211.25 429.894 211.25 417.312C211.25 404.731 206.252 392.665 197.356 383.769C188.46 374.873 176.394 369.875 163.812 369.875C151.231 369.875 139.165 374.873 130.269 383.769C121.373 392.665 116.375 404.731 116.375 417.312Z" stroke="#3C0D0D" stroke-width="31.625" stroke-linecap="round" stroke-linejoin="round"/>
<path d="M53.125 417.312H116.375" stroke="#3C0D0D" stroke-width="31.625" stroke-linecap="round" stroke-linejoin="round"/>
</g>
</g>
<defs>
<clipPath id="clip0_84_111">
<rect width="427.5" height="427.5" rx="12" fill="white"/>
</clipPath>
<clipPath id="clip1_84_111">
<rect width="379.5" height="379.5" fill="white" transform="translate(-105 148.5)"/>
</clipPath>
</defs>
</svg>
